; NON-PLATED HOLES START AT T1
; THROUGH (PLATED) HOLES START AT T100
M48
INCH
T1C0.086614
T100C0.100000
T101C0.040000
T102C0.043307
T103C0.032000
T104C0.041333
T105C0.030000
T106C0.035000
T107C0.031497
T108C0.038000
T109C0.015748
T110C0.042000
T111C0.088356
T112C0.041361
%
T1
X038614Y030725
X038577Y013985
X000762Y000762
X000836Y013540
X038614Y000762
X000762Y030725
T100
X002553Y026587
X004453Y027787
X004453Y025387
T101
X034294Y029636
X030614Y029643
X035672Y029636
X029237Y029643
T102
X020195Y012491
X020195Y018491
X016195Y018491
X015195Y018491
X024195Y012491
X024195Y018491
X014195Y012491
X014195Y018491
X022195Y018491
X019195Y018491
X017195Y018491
X012195Y012491
X023195Y012491
X015195Y012491
X016195Y012491
X023195Y018491
X013195Y018491
X021195Y012491
X021195Y018491
X019195Y012491
X022195Y012491
X011195Y018491
X011195Y012491
X018195Y018491
X017195Y012491
X018195Y012491
X012195Y018491
X013195Y012491
T103
X003447Y014379
X003447Y013379
X003482Y015965
X006482Y016965
X006482Y015965
X003482Y016965
X006447Y014379
X006447Y013379
T104
X032646Y005659
X032645Y004659
X006689Y004626
X006688Y003626
T105
X017263Y029571
X023263Y026569
X017262Y026569
X023263Y029571
T106
X013018Y004438
X021523Y021409
X033375Y021544
X028857Y025142
X025015Y003174
X027646Y020403
X019523Y024409
X032914Y016948
X028914Y016948
X009021Y003154
X002619Y019582
X033340Y020376
X022523Y024409
X027576Y022905
X033914Y016948
X016523Y024409
X031914Y013948
X021523Y024409
X002619Y023582
X036712Y023519
X033914Y013948
X010933Y009768
X037375Y021544
X031576Y022905
X009018Y004438
X007852Y027172
X013021Y003154
X011933Y009768
X010411Y027172
X009563Y022359
X012466Y029392
X023523Y024409
X007852Y025401
X029857Y025142
X018523Y024409
X012466Y025392
X026419Y004554
X027914Y013948
X031914Y016948
X024015Y003174
X037340Y020376
X030914Y016948
X028914Y013948
X017523Y021409
X020523Y024409
X020523Y021409
X030407Y003139
X031646Y020403
X010411Y025401
X028800Y027318
X031791Y025119
X015813Y003190
X031646Y021654
X027914Y016948
X017523Y024409
X032791Y025119
X008563Y022359
X016523Y021409
X026407Y003139
X014813Y003190
X027646Y021654
X029914Y013948
X035712Y023519
X023523Y021409
X019523Y021409
X022523Y021409
X029914Y016948
X032914Y013948
X018523Y021409
X032800Y027318
X030914Y013948
X030419Y004554
T107
X004872Y020439
X004872Y019454
T108
X017588Y008793
X018561Y019865
X014438Y008793
X017561Y019865
X017588Y007793
X016013Y008793
X019163Y007793
X025207Y022484
X016013Y007793
X019163Y008793
X025207Y021485
X014438Y007793
T109
X001277Y027786
X007619Y020165
X014016Y022760
X001333Y016948
X023183Y010269
X030443Y006849
X015266Y024385
X021216Y006818
X011394Y030429
X033938Y007929
X001274Y023592
X023244Y006818
X007622Y019229
X008903Y010541
X027526Y029636
X020112Y010245
X009012Y005855
X015218Y029577
T110
X013985Y028771
X004450Y022070
X013985Y025791
X006450Y022070
X005450Y022070
T111
X035598Y002718
X035598Y006601
X003736Y006568
X003736Y002685
T112
X032646Y003659
X006688Y005627
T00
M30
