G04 MADE WITH FRITZING*
G04 WWW.FRITZING.ORG*
G04 DOUBLE SIDED*
G04 HOLES PLATED*
G04 CONTOUR ON CENTER OF CONTOUR VECTOR*
%ASAXBY*%
%FSLAX23Y23*%
%MOIN*%
%OFA0B0*%
%SFA1.0B1.0*%
%ADD10C,0.049370*%
%ADD11C,0.085000*%
%ADD12C,0.092000*%
%ADD13C,0.080000*%
%ADD14C,0.088000*%
%ADD15C,0.096614*%
%ADD16C,0.093307*%
%ADD17C,0.084667*%
%ADD18C,0.084695*%
%ADD19C,0.134033*%
%ADD20C,0.150000*%
%ADD21C,0.090000*%
%ADD22C,0.072992*%
%ADD23C,0.062000*%
%ADD24R,0.085000X0.085000*%
%ADD25R,0.092000X0.092000*%
%ADD26R,0.090000X0.090000*%
%ADD27R,0.072992X0.072992*%
%ADD28C,0.030000*%
%ADD29R,0.001000X0.001000*%
%LNMASK1*%
G90*
G70*
G54D10*
X2324Y682D03*
X2122Y682D03*
G54D11*
X1093Y977D03*
X1193Y977D03*
G54D12*
X445Y2207D03*
X545Y2207D03*
X645Y2207D03*
G54D11*
X262Y2358D03*
X262Y1958D03*
X856Y2236D03*
X956Y2236D03*
G54D10*
X762Y2017D03*
G54D13*
X1726Y2657D03*
X2326Y2657D03*
X2326Y2957D03*
X1726Y2957D03*
G54D10*
X1522Y2958D03*
X1527Y2439D03*
X3394Y793D03*
G54D14*
X2521Y2248D03*
X2521Y2149D03*
G54D10*
X762Y1923D03*
G54D11*
X2880Y2732D03*
X3280Y2732D03*
X1652Y2141D03*
X1652Y2441D03*
X1752Y2141D03*
X1752Y2441D03*
X1852Y2141D03*
X1852Y2441D03*
X1952Y2141D03*
X1952Y2441D03*
X2052Y2141D03*
X2052Y2441D03*
X2152Y2141D03*
X2152Y2441D03*
X2252Y2141D03*
X2252Y2441D03*
X2352Y2141D03*
X2352Y2441D03*
G54D12*
X1399Y2877D03*
X1399Y2579D03*
G54D11*
X1247Y2939D03*
X1247Y2539D03*
G54D10*
X1402Y2276D03*
X1139Y3043D03*
G54D14*
X1756Y1987D03*
X1856Y1987D03*
G54D10*
X133Y1695D03*
G54D15*
X76Y3073D03*
X3861Y3073D03*
X3861Y76D03*
X76Y76D03*
X3858Y1399D03*
X84Y1354D03*
G54D14*
X1444Y879D03*
X1444Y779D03*
G54D10*
X890Y1054D03*
G54D14*
X1601Y879D03*
X1601Y779D03*
X1759Y879D03*
X1759Y779D03*
X1916Y879D03*
X1916Y779D03*
G54D10*
X2318Y1027D03*
X2011Y1025D03*
G54D11*
X902Y444D03*
X1302Y444D03*
X902Y315D03*
X1302Y315D03*
X2642Y455D03*
X3042Y455D03*
X2641Y314D03*
X3041Y314D03*
X2402Y317D03*
X2502Y317D03*
X1581Y319D03*
X1481Y319D03*
G54D16*
X1120Y1249D03*
X1120Y1849D03*
X1220Y1249D03*
X1220Y1849D03*
X1320Y1249D03*
X1320Y1849D03*
X1420Y1249D03*
X1420Y1849D03*
X1520Y1249D03*
X1520Y1849D03*
X1620Y1249D03*
X1620Y1849D03*
X1720Y1249D03*
X1720Y1849D03*
X1820Y1249D03*
X1820Y1849D03*
X1920Y1249D03*
X1920Y1849D03*
X2020Y1249D03*
X2020Y1849D03*
X2120Y1249D03*
X2120Y1849D03*
X2220Y1249D03*
X2220Y1849D03*
X2320Y1249D03*
X2320Y1849D03*
X2420Y1249D03*
X2420Y1849D03*
G54D17*
X669Y363D03*
X669Y463D03*
G54D18*
X669Y563D03*
G54D19*
X374Y269D03*
X374Y657D03*
G54D17*
X3265Y566D03*
X3265Y466D03*
G54D18*
X3265Y366D03*
G54D19*
X3560Y660D03*
X3560Y272D03*
G54D20*
X445Y2539D03*
X445Y2779D03*
X255Y2659D03*
G54D21*
X2924Y2964D03*
X3061Y2964D03*
X3429Y2964D03*
X3567Y2964D03*
G54D11*
X2791Y1395D03*
X2791Y1695D03*
X2891Y1395D03*
X2891Y1695D03*
X2991Y1395D03*
X2991Y1695D03*
X3091Y1395D03*
X3091Y1695D03*
X3191Y1395D03*
X3191Y1695D03*
X3291Y1395D03*
X3291Y1695D03*
X3391Y1395D03*
X3391Y1695D03*
X2765Y2165D03*
X3165Y2165D03*
X2765Y2040D03*
X3165Y2040D03*
X2758Y2291D03*
X3158Y2291D03*
G54D10*
X2753Y2964D03*
G54D11*
X3338Y2154D03*
X3738Y2154D03*
X3334Y2038D03*
X3734Y2038D03*
X3571Y2352D03*
X3671Y2352D03*
X2886Y2514D03*
X2986Y2514D03*
X3279Y2512D03*
X3179Y2512D03*
G54D10*
X901Y586D03*
X3044Y685D03*
G54D11*
X1041Y2540D03*
X785Y2540D03*
X1041Y2717D03*
X785Y2717D03*
G54D22*
X487Y1945D03*
X487Y2044D03*
G54D23*
X645Y1338D03*
X645Y1438D03*
X345Y1438D03*
X345Y1338D03*
X645Y1338D03*
X645Y1438D03*
X345Y1438D03*
X345Y1338D03*
X648Y1597D03*
X648Y1697D03*
X348Y1697D03*
X348Y1597D03*
X648Y1597D03*
X648Y1697D03*
X348Y1697D03*
X348Y1597D03*
G54D10*
X128Y2779D03*
X127Y2359D03*
G54D24*
X1093Y977D03*
G54D25*
X445Y2207D03*
G54D24*
X856Y2236D03*
X1652Y2141D03*
G54D25*
X1399Y2878D03*
G54D24*
X2402Y317D03*
X1581Y319D03*
G54D26*
X2924Y2964D03*
X3429Y2964D03*
G54D24*
X2791Y1395D03*
X3571Y2352D03*
X2886Y2514D03*
X3279Y2512D03*
G54D27*
X487Y1945D03*
G54D28*
G36*
X1088Y1281D02*
X1151Y1281D01*
X1151Y1217D01*
X1088Y1217D01*
X1088Y1281D01*
G37*
D02*
G54D29*
X316Y1728D02*
X379Y1728D01*
X616Y1728D02*
X679Y1728D01*
X312Y1727D02*
X383Y1727D01*
X612Y1727D02*
X683Y1727D01*
X310Y1726D02*
X386Y1726D01*
X610Y1726D02*
X686Y1726D01*
X308Y1725D02*
X388Y1725D01*
X608Y1725D02*
X688Y1725D01*
X306Y1724D02*
X389Y1724D01*
X606Y1724D02*
X689Y1724D01*
X304Y1723D02*
X391Y1723D01*
X604Y1723D02*
X691Y1723D01*
X303Y1722D02*
X392Y1722D01*
X603Y1722D02*
X692Y1722D01*
X302Y1721D02*
X394Y1721D01*
X602Y1721D02*
X694Y1721D01*
X301Y1720D02*
X395Y1720D01*
X601Y1720D02*
X695Y1720D01*
X300Y1719D02*
X396Y1719D01*
X600Y1719D02*
X696Y1719D01*
X299Y1718D02*
X397Y1718D01*
X599Y1718D02*
X697Y1718D01*
X298Y1717D02*
X397Y1717D01*
X598Y1717D02*
X697Y1717D01*
X297Y1716D02*
X398Y1716D01*
X597Y1716D02*
X698Y1716D01*
X297Y1715D02*
X399Y1715D01*
X597Y1715D02*
X699Y1715D01*
X296Y1714D02*
X399Y1714D01*
X596Y1714D02*
X699Y1714D01*
X295Y1713D02*
X400Y1713D01*
X595Y1713D02*
X700Y1713D01*
X295Y1712D02*
X401Y1712D01*
X595Y1712D02*
X701Y1712D01*
X294Y1711D02*
X401Y1711D01*
X594Y1711D02*
X701Y1711D01*
X294Y1710D02*
X402Y1710D01*
X594Y1710D02*
X702Y1710D01*
X293Y1709D02*
X402Y1709D01*
X593Y1709D02*
X702Y1709D01*
X293Y1708D02*
X343Y1708D01*
X352Y1708D02*
X402Y1708D01*
X593Y1708D02*
X643Y1708D01*
X652Y1708D02*
X702Y1708D01*
X293Y1707D02*
X341Y1707D01*
X354Y1707D02*
X403Y1707D01*
X593Y1707D02*
X641Y1707D01*
X654Y1707D02*
X703Y1707D01*
X292Y1706D02*
X340Y1706D01*
X355Y1706D02*
X403Y1706D01*
X592Y1706D02*
X640Y1706D01*
X655Y1706D02*
X703Y1706D01*
X292Y1705D02*
X339Y1705D01*
X356Y1705D02*
X403Y1705D01*
X592Y1705D02*
X639Y1705D01*
X656Y1705D02*
X703Y1705D01*
X292Y1704D02*
X338Y1704D01*
X357Y1704D02*
X404Y1704D01*
X592Y1704D02*
X638Y1704D01*
X657Y1704D02*
X704Y1704D01*
X292Y1703D02*
X338Y1703D01*
X358Y1703D02*
X404Y1703D01*
X592Y1703D02*
X638Y1703D01*
X658Y1703D02*
X704Y1703D01*
X292Y1702D02*
X337Y1702D01*
X358Y1702D02*
X404Y1702D01*
X592Y1702D02*
X637Y1702D01*
X658Y1702D02*
X704Y1702D01*
X291Y1701D02*
X337Y1701D01*
X359Y1701D02*
X404Y1701D01*
X591Y1701D02*
X637Y1701D01*
X659Y1701D02*
X704Y1701D01*
X291Y1700D02*
X336Y1700D01*
X359Y1700D02*
X404Y1700D01*
X591Y1700D02*
X636Y1700D01*
X659Y1700D02*
X704Y1700D01*
X291Y1699D02*
X336Y1699D01*
X359Y1699D02*
X404Y1699D01*
X591Y1699D02*
X636Y1699D01*
X659Y1699D02*
X704Y1699D01*
X291Y1698D02*
X336Y1698D01*
X359Y1698D02*
X404Y1698D01*
X591Y1698D02*
X636Y1698D01*
X659Y1698D02*
X704Y1698D01*
X291Y1697D02*
X336Y1697D01*
X359Y1697D02*
X404Y1697D01*
X591Y1697D02*
X636Y1697D01*
X659Y1697D02*
X704Y1697D01*
X291Y1696D02*
X336Y1696D01*
X359Y1696D02*
X404Y1696D01*
X591Y1696D02*
X636Y1696D01*
X659Y1696D02*
X704Y1696D01*
X291Y1695D02*
X337Y1695D01*
X359Y1695D02*
X404Y1695D01*
X591Y1695D02*
X637Y1695D01*
X659Y1695D02*
X704Y1695D01*
X291Y1694D02*
X337Y1694D01*
X359Y1694D02*
X404Y1694D01*
X591Y1694D02*
X637Y1694D01*
X659Y1694D02*
X704Y1694D01*
X292Y1693D02*
X337Y1693D01*
X358Y1693D02*
X404Y1693D01*
X592Y1693D02*
X637Y1693D01*
X658Y1693D02*
X704Y1693D01*
X292Y1692D02*
X338Y1692D01*
X358Y1692D02*
X404Y1692D01*
X592Y1692D02*
X638Y1692D01*
X658Y1692D02*
X704Y1692D01*
X292Y1691D02*
X339Y1691D01*
X357Y1691D02*
X403Y1691D01*
X592Y1691D02*
X639Y1691D01*
X657Y1691D02*
X703Y1691D01*
X292Y1690D02*
X339Y1690D01*
X356Y1690D02*
X403Y1690D01*
X592Y1690D02*
X639Y1690D01*
X656Y1690D02*
X703Y1690D01*
X293Y1689D02*
X341Y1689D01*
X355Y1689D02*
X403Y1689D01*
X593Y1689D02*
X641Y1689D01*
X655Y1689D02*
X703Y1689D01*
X293Y1688D02*
X342Y1688D01*
X353Y1688D02*
X403Y1688D01*
X593Y1688D02*
X642Y1688D01*
X653Y1688D02*
X703Y1688D01*
X293Y1687D02*
X344Y1687D01*
X351Y1687D02*
X402Y1687D01*
X593Y1687D02*
X644Y1687D01*
X651Y1687D02*
X702Y1687D01*
X294Y1686D02*
X402Y1686D01*
X594Y1686D02*
X702Y1686D01*
X294Y1685D02*
X401Y1685D01*
X594Y1685D02*
X701Y1685D01*
X295Y1684D02*
X401Y1684D01*
X595Y1684D02*
X701Y1684D01*
X295Y1683D02*
X400Y1683D01*
X595Y1683D02*
X700Y1683D01*
X296Y1682D02*
X400Y1682D01*
X596Y1682D02*
X700Y1682D01*
X296Y1681D02*
X399Y1681D01*
X596Y1681D02*
X699Y1681D01*
X297Y1680D02*
X399Y1680D01*
X597Y1680D02*
X699Y1680D01*
X298Y1679D02*
X398Y1679D01*
X598Y1679D02*
X698Y1679D01*
X298Y1678D02*
X397Y1678D01*
X598Y1678D02*
X697Y1678D01*
X299Y1677D02*
X396Y1677D01*
X599Y1677D02*
X696Y1677D01*
X300Y1676D02*
X395Y1676D01*
X600Y1676D02*
X695Y1676D01*
X301Y1675D02*
X394Y1675D01*
X601Y1675D02*
X694Y1675D01*
X302Y1674D02*
X393Y1674D01*
X602Y1674D02*
X693Y1674D01*
X304Y1673D02*
X392Y1673D01*
X604Y1673D02*
X692Y1673D01*
X305Y1672D02*
X390Y1672D01*
X605Y1672D02*
X690Y1672D01*
X307Y1671D02*
X389Y1671D01*
X607Y1671D02*
X689Y1671D01*
X309Y1670D02*
X387Y1670D01*
X609Y1670D02*
X687Y1670D01*
X311Y1669D02*
X385Y1669D01*
X611Y1669D02*
X685Y1669D01*
X314Y1668D02*
X382Y1668D01*
X614Y1668D02*
X682Y1668D01*
X318Y1667D02*
X377Y1667D01*
X618Y1667D02*
X677Y1667D01*
X316Y1628D02*
X380Y1628D01*
X616Y1628D02*
X680Y1628D01*
X312Y1627D02*
X383Y1627D01*
X612Y1627D02*
X683Y1627D01*
X310Y1626D02*
X386Y1626D01*
X610Y1626D02*
X686Y1626D01*
X308Y1625D02*
X388Y1625D01*
X608Y1625D02*
X688Y1625D01*
X306Y1624D02*
X389Y1624D01*
X606Y1624D02*
X689Y1624D01*
X304Y1623D02*
X391Y1623D01*
X604Y1623D02*
X691Y1623D01*
X303Y1622D02*
X392Y1622D01*
X603Y1622D02*
X692Y1622D01*
X302Y1621D02*
X394Y1621D01*
X602Y1621D02*
X694Y1621D01*
X301Y1620D02*
X395Y1620D01*
X601Y1620D02*
X695Y1620D01*
X300Y1619D02*
X396Y1619D01*
X600Y1619D02*
X696Y1619D01*
X299Y1618D02*
X397Y1618D01*
X599Y1618D02*
X697Y1618D01*
X298Y1617D02*
X397Y1617D01*
X598Y1617D02*
X697Y1617D01*
X297Y1616D02*
X398Y1616D01*
X597Y1616D02*
X698Y1616D01*
X297Y1615D02*
X399Y1615D01*
X597Y1615D02*
X699Y1615D01*
X296Y1614D02*
X399Y1614D01*
X596Y1614D02*
X699Y1614D01*
X295Y1613D02*
X400Y1613D01*
X595Y1613D02*
X700Y1613D01*
X295Y1612D02*
X401Y1612D01*
X595Y1612D02*
X701Y1612D01*
X294Y1611D02*
X401Y1611D01*
X594Y1611D02*
X701Y1611D01*
X294Y1610D02*
X402Y1610D01*
X594Y1610D02*
X702Y1610D01*
X293Y1609D02*
X402Y1609D01*
X593Y1609D02*
X702Y1609D01*
X293Y1608D02*
X343Y1608D01*
X352Y1608D02*
X402Y1608D01*
X593Y1608D02*
X643Y1608D01*
X652Y1608D02*
X702Y1608D01*
X293Y1607D02*
X341Y1607D01*
X354Y1607D02*
X403Y1607D01*
X593Y1607D02*
X641Y1607D01*
X654Y1607D02*
X703Y1607D01*
X292Y1606D02*
X340Y1606D01*
X355Y1606D02*
X403Y1606D01*
X592Y1606D02*
X640Y1606D01*
X655Y1606D02*
X703Y1606D01*
X292Y1605D02*
X339Y1605D01*
X356Y1605D02*
X403Y1605D01*
X592Y1605D02*
X639Y1605D01*
X656Y1605D02*
X703Y1605D01*
X292Y1604D02*
X338Y1604D01*
X357Y1604D02*
X404Y1604D01*
X592Y1604D02*
X638Y1604D01*
X657Y1604D02*
X704Y1604D01*
X292Y1603D02*
X338Y1603D01*
X358Y1603D02*
X404Y1603D01*
X592Y1603D02*
X638Y1603D01*
X658Y1603D02*
X704Y1603D01*
X292Y1602D02*
X337Y1602D01*
X358Y1602D02*
X404Y1602D01*
X592Y1602D02*
X637Y1602D01*
X658Y1602D02*
X704Y1602D01*
X291Y1601D02*
X337Y1601D01*
X359Y1601D02*
X404Y1601D01*
X591Y1601D02*
X637Y1601D01*
X659Y1601D02*
X704Y1601D01*
X291Y1600D02*
X336Y1600D01*
X359Y1600D02*
X404Y1600D01*
X591Y1600D02*
X636Y1600D01*
X659Y1600D02*
X704Y1600D01*
X291Y1599D02*
X336Y1599D01*
X359Y1599D02*
X404Y1599D01*
X591Y1599D02*
X636Y1599D01*
X659Y1599D02*
X704Y1599D01*
X291Y1598D02*
X336Y1598D01*
X359Y1598D02*
X404Y1598D01*
X591Y1598D02*
X636Y1598D01*
X659Y1598D02*
X704Y1598D01*
X291Y1597D02*
X336Y1597D01*
X359Y1597D02*
X404Y1597D01*
X591Y1597D02*
X636Y1597D01*
X659Y1597D02*
X704Y1597D01*
X291Y1596D02*
X336Y1596D01*
X359Y1596D02*
X404Y1596D01*
X591Y1596D02*
X636Y1596D01*
X659Y1596D02*
X704Y1596D01*
X291Y1595D02*
X337Y1595D01*
X359Y1595D02*
X404Y1595D01*
X591Y1595D02*
X637Y1595D01*
X659Y1595D02*
X704Y1595D01*
X291Y1594D02*
X337Y1594D01*
X359Y1594D02*
X404Y1594D01*
X591Y1594D02*
X637Y1594D01*
X659Y1594D02*
X704Y1594D01*
X292Y1593D02*
X337Y1593D01*
X358Y1593D02*
X404Y1593D01*
X592Y1593D02*
X637Y1593D01*
X658Y1593D02*
X704Y1593D01*
X292Y1592D02*
X338Y1592D01*
X358Y1592D02*
X404Y1592D01*
X592Y1592D02*
X638Y1592D01*
X658Y1592D02*
X704Y1592D01*
X292Y1591D02*
X339Y1591D01*
X357Y1591D02*
X403Y1591D01*
X592Y1591D02*
X639Y1591D01*
X657Y1591D02*
X703Y1591D01*
X292Y1590D02*
X339Y1590D01*
X356Y1590D02*
X403Y1590D01*
X592Y1590D02*
X639Y1590D01*
X656Y1590D02*
X703Y1590D01*
X293Y1589D02*
X341Y1589D01*
X355Y1589D02*
X403Y1589D01*
X593Y1589D02*
X641Y1589D01*
X655Y1589D02*
X703Y1589D01*
X293Y1588D02*
X342Y1588D01*
X353Y1588D02*
X403Y1588D01*
X593Y1588D02*
X642Y1588D01*
X653Y1588D02*
X703Y1588D01*
X293Y1587D02*
X345Y1587D01*
X351Y1587D02*
X402Y1587D01*
X593Y1587D02*
X645Y1587D01*
X651Y1587D02*
X702Y1587D01*
X294Y1586D02*
X402Y1586D01*
X594Y1586D02*
X702Y1586D01*
X294Y1585D02*
X401Y1585D01*
X594Y1585D02*
X701Y1585D01*
X295Y1584D02*
X401Y1584D01*
X595Y1584D02*
X701Y1584D01*
X295Y1583D02*
X400Y1583D01*
X595Y1583D02*
X700Y1583D01*
X296Y1582D02*
X400Y1582D01*
X596Y1582D02*
X700Y1582D01*
X296Y1581D02*
X399Y1581D01*
X596Y1581D02*
X699Y1581D01*
X297Y1580D02*
X399Y1580D01*
X597Y1580D02*
X699Y1580D01*
X298Y1579D02*
X398Y1579D01*
X598Y1579D02*
X698Y1579D01*
X298Y1578D02*
X397Y1578D01*
X598Y1578D02*
X697Y1578D01*
X299Y1577D02*
X396Y1577D01*
X599Y1577D02*
X696Y1577D01*
X300Y1576D02*
X395Y1576D01*
X600Y1576D02*
X695Y1576D01*
X301Y1575D02*
X394Y1575D01*
X601Y1575D02*
X694Y1575D01*
X302Y1574D02*
X393Y1574D01*
X602Y1574D02*
X693Y1574D01*
X304Y1573D02*
X392Y1573D01*
X604Y1573D02*
X692Y1573D01*
X305Y1572D02*
X390Y1572D01*
X605Y1572D02*
X690Y1572D01*
X307Y1571D02*
X389Y1571D01*
X607Y1571D02*
X689Y1571D01*
X309Y1570D02*
X387Y1570D01*
X609Y1570D02*
X687Y1570D01*
X311Y1569D02*
X385Y1569D01*
X611Y1569D02*
X685Y1569D01*
X314Y1568D02*
X382Y1568D01*
X614Y1568D02*
X682Y1568D01*
X318Y1567D02*
X377Y1567D01*
X618Y1567D02*
X677Y1567D01*
X316Y1470D02*
X373Y1470D01*
X616Y1470D02*
X673Y1470D01*
X311Y1469D02*
X378Y1469D01*
X611Y1469D02*
X678Y1469D01*
X308Y1468D02*
X381Y1468D01*
X608Y1468D02*
X681Y1468D01*
X305Y1467D02*
X383Y1467D01*
X605Y1467D02*
X683Y1467D01*
X303Y1466D02*
X385Y1466D01*
X603Y1466D02*
X685Y1466D01*
X302Y1465D02*
X387Y1465D01*
X602Y1465D02*
X687Y1465D01*
X300Y1464D02*
X388Y1464D01*
X600Y1464D02*
X688Y1464D01*
X299Y1463D02*
X389Y1463D01*
X599Y1463D02*
X689Y1463D01*
X298Y1462D02*
X391Y1462D01*
X598Y1462D02*
X691Y1462D01*
X297Y1461D02*
X392Y1461D01*
X597Y1461D02*
X692Y1461D01*
X296Y1460D02*
X393Y1460D01*
X596Y1460D02*
X693Y1460D01*
X295Y1459D02*
X394Y1459D01*
X595Y1459D02*
X694Y1459D01*
X294Y1458D02*
X394Y1458D01*
X594Y1458D02*
X694Y1458D01*
X293Y1457D02*
X395Y1457D01*
X593Y1457D02*
X695Y1457D01*
X293Y1456D02*
X396Y1456D01*
X593Y1456D02*
X696Y1456D01*
X292Y1455D02*
X396Y1455D01*
X592Y1455D02*
X696Y1455D01*
X292Y1454D02*
X397Y1454D01*
X592Y1454D02*
X697Y1454D01*
X291Y1453D02*
X397Y1453D01*
X591Y1453D02*
X697Y1453D01*
X291Y1452D02*
X398Y1452D01*
X591Y1452D02*
X698Y1452D01*
X290Y1451D02*
X398Y1451D01*
X590Y1451D02*
X698Y1451D01*
X290Y1450D02*
X342Y1450D01*
X347Y1450D02*
X399Y1450D01*
X590Y1450D02*
X642Y1450D01*
X647Y1450D02*
X699Y1450D01*
X289Y1449D02*
X339Y1449D01*
X350Y1449D02*
X399Y1449D01*
X589Y1449D02*
X639Y1449D01*
X650Y1449D02*
X699Y1449D01*
X289Y1448D02*
X337Y1448D01*
X351Y1448D02*
X399Y1448D01*
X589Y1448D02*
X637Y1448D01*
X651Y1448D02*
X699Y1448D01*
X289Y1447D02*
X336Y1447D01*
X352Y1447D02*
X400Y1447D01*
X589Y1447D02*
X636Y1447D01*
X652Y1447D02*
X700Y1447D01*
X289Y1446D02*
X335Y1446D01*
X353Y1446D02*
X400Y1446D01*
X589Y1446D02*
X635Y1446D01*
X653Y1446D02*
X700Y1446D01*
X288Y1445D02*
X334Y1445D01*
X354Y1445D02*
X400Y1445D01*
X588Y1445D02*
X634Y1445D01*
X654Y1445D02*
X700Y1445D01*
X288Y1444D02*
X334Y1444D01*
X355Y1444D02*
X400Y1444D01*
X588Y1444D02*
X634Y1444D01*
X655Y1444D02*
X700Y1444D01*
X288Y1443D02*
X333Y1443D01*
X355Y1443D02*
X400Y1443D01*
X588Y1443D02*
X633Y1443D01*
X655Y1443D02*
X700Y1443D01*
X288Y1442D02*
X333Y1442D01*
X355Y1442D02*
X401Y1442D01*
X588Y1442D02*
X633Y1442D01*
X655Y1442D02*
X701Y1442D01*
X288Y1441D02*
X333Y1441D01*
X356Y1441D02*
X401Y1441D01*
X588Y1441D02*
X633Y1441D01*
X656Y1441D02*
X701Y1441D01*
X288Y1440D02*
X333Y1440D01*
X356Y1440D02*
X401Y1440D01*
X588Y1440D02*
X633Y1440D01*
X656Y1440D02*
X701Y1440D01*
X288Y1439D02*
X333Y1439D01*
X356Y1439D02*
X401Y1439D01*
X588Y1439D02*
X633Y1439D01*
X656Y1439D02*
X701Y1439D01*
X288Y1438D02*
X333Y1438D01*
X356Y1438D02*
X401Y1438D01*
X588Y1438D02*
X633Y1438D01*
X656Y1438D02*
X701Y1438D01*
X288Y1437D02*
X333Y1437D01*
X356Y1437D02*
X401Y1437D01*
X588Y1437D02*
X633Y1437D01*
X656Y1437D02*
X701Y1437D01*
X288Y1436D02*
X333Y1436D01*
X355Y1436D02*
X401Y1436D01*
X588Y1436D02*
X633Y1436D01*
X655Y1436D02*
X701Y1436D01*
X288Y1435D02*
X333Y1435D01*
X355Y1435D02*
X400Y1435D01*
X588Y1435D02*
X633Y1435D01*
X655Y1435D02*
X700Y1435D01*
X288Y1434D02*
X334Y1434D01*
X354Y1434D02*
X400Y1434D01*
X588Y1434D02*
X634Y1434D01*
X654Y1434D02*
X700Y1434D01*
X288Y1433D02*
X335Y1433D01*
X354Y1433D02*
X400Y1433D01*
X588Y1433D02*
X635Y1433D01*
X654Y1433D02*
X700Y1433D01*
X289Y1432D02*
X335Y1432D01*
X353Y1432D02*
X400Y1432D01*
X589Y1432D02*
X635Y1432D01*
X653Y1432D02*
X700Y1432D01*
X289Y1431D02*
X336Y1431D01*
X352Y1431D02*
X400Y1431D01*
X589Y1431D02*
X636Y1431D01*
X652Y1431D02*
X700Y1431D01*
X289Y1430D02*
X338Y1430D01*
X351Y1430D02*
X399Y1430D01*
X589Y1430D02*
X638Y1430D01*
X651Y1430D02*
X699Y1430D01*
X290Y1429D02*
X339Y1429D01*
X349Y1429D02*
X399Y1429D01*
X590Y1429D02*
X639Y1429D01*
X649Y1429D02*
X699Y1429D01*
X290Y1428D02*
X399Y1428D01*
X590Y1428D02*
X699Y1428D01*
X290Y1427D02*
X398Y1427D01*
X590Y1427D02*
X698Y1427D01*
X291Y1426D02*
X398Y1426D01*
X591Y1426D02*
X698Y1426D01*
X291Y1425D02*
X397Y1425D01*
X591Y1425D02*
X697Y1425D01*
X292Y1424D02*
X397Y1424D01*
X592Y1424D02*
X697Y1424D01*
X292Y1423D02*
X396Y1423D01*
X592Y1423D02*
X696Y1423D01*
X293Y1422D02*
X395Y1422D01*
X593Y1422D02*
X695Y1422D01*
X294Y1421D02*
X395Y1421D01*
X594Y1421D02*
X695Y1421D01*
X294Y1420D02*
X394Y1420D01*
X594Y1420D02*
X694Y1420D01*
X295Y1419D02*
X393Y1419D01*
X595Y1419D02*
X693Y1419D01*
X296Y1418D02*
X392Y1418D01*
X596Y1418D02*
X692Y1418D01*
X297Y1417D02*
X391Y1417D01*
X597Y1417D02*
X691Y1417D01*
X298Y1416D02*
X390Y1416D01*
X598Y1416D02*
X690Y1416D01*
X299Y1415D02*
X389Y1415D01*
X599Y1415D02*
X689Y1415D01*
X301Y1414D02*
X388Y1414D01*
X601Y1414D02*
X688Y1414D01*
X302Y1413D02*
X386Y1413D01*
X602Y1413D02*
X686Y1413D01*
X304Y1412D02*
X384Y1412D01*
X604Y1412D02*
X684Y1412D01*
X306Y1411D02*
X382Y1411D01*
X606Y1411D02*
X682Y1411D01*
X309Y1410D02*
X380Y1410D01*
X609Y1410D02*
X680Y1410D01*
X312Y1409D02*
X377Y1409D01*
X612Y1409D02*
X677Y1409D01*
X316Y1370D02*
X373Y1370D01*
X616Y1370D02*
X673Y1370D01*
X311Y1369D02*
X378Y1369D01*
X611Y1369D02*
X678Y1369D01*
X308Y1368D02*
X381Y1368D01*
X608Y1368D02*
X681Y1368D01*
X305Y1367D02*
X383Y1367D01*
X605Y1367D02*
X683Y1367D01*
X303Y1366D02*
X385Y1366D01*
X603Y1366D02*
X685Y1366D01*
X302Y1365D02*
X387Y1365D01*
X602Y1365D02*
X687Y1365D01*
X300Y1364D02*
X388Y1364D01*
X600Y1364D02*
X688Y1364D01*
X299Y1363D02*
X390Y1363D01*
X599Y1363D02*
X690Y1363D01*
X298Y1362D02*
X391Y1362D01*
X598Y1362D02*
X691Y1362D01*
X297Y1361D02*
X392Y1361D01*
X597Y1361D02*
X692Y1361D01*
X296Y1360D02*
X393Y1360D01*
X596Y1360D02*
X693Y1360D01*
X295Y1359D02*
X394Y1359D01*
X595Y1359D02*
X694Y1359D01*
X294Y1358D02*
X394Y1358D01*
X594Y1358D02*
X694Y1358D01*
X293Y1357D02*
X395Y1357D01*
X593Y1357D02*
X695Y1357D01*
X293Y1356D02*
X396Y1356D01*
X593Y1356D02*
X696Y1356D01*
X292Y1355D02*
X396Y1355D01*
X592Y1355D02*
X696Y1355D01*
X292Y1354D02*
X397Y1354D01*
X592Y1354D02*
X697Y1354D01*
X291Y1353D02*
X397Y1353D01*
X591Y1353D02*
X697Y1353D01*
X291Y1352D02*
X398Y1352D01*
X591Y1352D02*
X698Y1352D01*
X290Y1351D02*
X398Y1351D01*
X590Y1351D02*
X698Y1351D01*
X290Y1350D02*
X342Y1350D01*
X347Y1350D02*
X399Y1350D01*
X590Y1350D02*
X642Y1350D01*
X647Y1350D02*
X699Y1350D01*
X289Y1349D02*
X339Y1349D01*
X350Y1349D02*
X399Y1349D01*
X589Y1349D02*
X639Y1349D01*
X650Y1349D02*
X699Y1349D01*
X289Y1348D02*
X337Y1348D01*
X351Y1348D02*
X399Y1348D01*
X589Y1348D02*
X637Y1348D01*
X651Y1348D02*
X699Y1348D01*
X289Y1347D02*
X336Y1347D01*
X352Y1347D02*
X400Y1347D01*
X589Y1347D02*
X636Y1347D01*
X652Y1347D02*
X700Y1347D01*
X289Y1346D02*
X335Y1346D01*
X353Y1346D02*
X400Y1346D01*
X589Y1346D02*
X635Y1346D01*
X653Y1346D02*
X700Y1346D01*
X288Y1345D02*
X334Y1345D01*
X354Y1345D02*
X400Y1345D01*
X588Y1345D02*
X634Y1345D01*
X654Y1345D02*
X700Y1345D01*
X288Y1344D02*
X334Y1344D01*
X355Y1344D02*
X400Y1344D01*
X588Y1344D02*
X634Y1344D01*
X655Y1344D02*
X700Y1344D01*
X288Y1343D02*
X333Y1343D01*
X355Y1343D02*
X400Y1343D01*
X588Y1343D02*
X633Y1343D01*
X655Y1343D02*
X700Y1343D01*
X288Y1342D02*
X333Y1342D01*
X355Y1342D02*
X401Y1342D01*
X588Y1342D02*
X633Y1342D01*
X655Y1342D02*
X701Y1342D01*
X288Y1341D02*
X333Y1341D01*
X356Y1341D02*
X401Y1341D01*
X588Y1341D02*
X633Y1341D01*
X656Y1341D02*
X701Y1341D01*
X288Y1340D02*
X333Y1340D01*
X356Y1340D02*
X401Y1340D01*
X588Y1340D02*
X633Y1340D01*
X656Y1340D02*
X701Y1340D01*
X288Y1339D02*
X333Y1339D01*
X356Y1339D02*
X401Y1339D01*
X588Y1339D02*
X633Y1339D01*
X656Y1339D02*
X701Y1339D01*
X288Y1338D02*
X333Y1338D01*
X356Y1338D02*
X401Y1338D01*
X588Y1338D02*
X633Y1338D01*
X656Y1338D02*
X701Y1338D01*
X288Y1337D02*
X333Y1337D01*
X356Y1337D02*
X401Y1337D01*
X588Y1337D02*
X633Y1337D01*
X656Y1337D02*
X701Y1337D01*
X288Y1336D02*
X333Y1336D01*
X355Y1336D02*
X401Y1336D01*
X588Y1336D02*
X633Y1336D01*
X655Y1336D02*
X701Y1336D01*
X288Y1335D02*
X333Y1335D01*
X355Y1335D02*
X400Y1335D01*
X588Y1335D02*
X633Y1335D01*
X655Y1335D02*
X700Y1335D01*
X288Y1334D02*
X334Y1334D01*
X354Y1334D02*
X400Y1334D01*
X588Y1334D02*
X634Y1334D01*
X654Y1334D02*
X700Y1334D01*
X288Y1333D02*
X335Y1333D01*
X354Y1333D02*
X400Y1333D01*
X588Y1333D02*
X635Y1333D01*
X654Y1333D02*
X700Y1333D01*
X289Y1332D02*
X335Y1332D01*
X353Y1332D02*
X400Y1332D01*
X589Y1332D02*
X635Y1332D01*
X653Y1332D02*
X700Y1332D01*
X289Y1331D02*
X336Y1331D01*
X352Y1331D02*
X400Y1331D01*
X589Y1331D02*
X636Y1331D01*
X652Y1331D02*
X700Y1331D01*
X289Y1330D02*
X338Y1330D01*
X351Y1330D02*
X399Y1330D01*
X589Y1330D02*
X638Y1330D01*
X651Y1330D02*
X699Y1330D01*
X290Y1329D02*
X339Y1329D01*
X349Y1329D02*
X399Y1329D01*
X590Y1329D02*
X639Y1329D01*
X649Y1329D02*
X699Y1329D01*
X290Y1328D02*
X399Y1328D01*
X590Y1328D02*
X699Y1328D01*
X290Y1327D02*
X398Y1327D01*
X590Y1327D02*
X698Y1327D01*
X291Y1326D02*
X398Y1326D01*
X591Y1326D02*
X698Y1326D01*
X291Y1325D02*
X397Y1325D01*
X591Y1325D02*
X697Y1325D01*
X292Y1324D02*
X397Y1324D01*
X592Y1324D02*
X697Y1324D01*
X292Y1323D02*
X396Y1323D01*
X592Y1323D02*
X696Y1323D01*
X293Y1322D02*
X395Y1322D01*
X593Y1322D02*
X695Y1322D01*
X294Y1321D02*
X395Y1321D01*
X594Y1321D02*
X695Y1321D01*
X294Y1320D02*
X394Y1320D01*
X594Y1320D02*
X694Y1320D01*
X295Y1319D02*
X393Y1319D01*
X595Y1319D02*
X693Y1319D01*
X296Y1318D02*
X392Y1318D01*
X596Y1318D02*
X692Y1318D01*
X297Y1317D02*
X391Y1317D01*
X597Y1317D02*
X691Y1317D01*
X298Y1316D02*
X390Y1316D01*
X598Y1316D02*
X690Y1316D01*
X299Y1315D02*
X389Y1315D01*
X599Y1315D02*
X689Y1315D01*
X301Y1314D02*
X388Y1314D01*
X601Y1314D02*
X688Y1314D01*
X302Y1313D02*
X386Y1313D01*
X602Y1313D02*
X686Y1313D01*
X304Y1312D02*
X384Y1312D01*
X604Y1312D02*
X684Y1312D01*
X306Y1311D02*
X382Y1311D01*
X606Y1311D02*
X682Y1311D01*
X309Y1310D02*
X380Y1310D01*
X609Y1310D02*
X680Y1310D01*
X312Y1309D02*
X376Y1309D01*
X612Y1309D02*
X676Y1309D01*
D02*
G04 End of Mask1*
M02*